<?xml version="1.0" encoding="utf-8"?>
<!-- Generator: Adobe Illustrator 20.1.0, SVG Export Plug-In . SVG Version: 6.00 Build 0)  -->
<svg version="1.1" id="圖層_1" xmlns="http://www.w3.org/2000/svg" xmlns:xlink="http://www.w3.org/1999/xlink" x="0px" y="0px"
	 viewBox="0 0 520 124" style="enable-background:new 0 0 520 124;" xml:space="preserve">
<style type="text/css">
	.st0{fill:#FFFFFF;}
</style>
<g>
	<g>
		<path class="st0" d="M115.1,49l14.2,0c-1.4,1.1-2.4,2.5-3.4,4.2l-10.4,20c-0.9,1.7-1.2,3.1-1,4.2l-12.8,0c1.4-1.1,2.4-2.5,3.4-4.2
			l9.1-17.4L95.6,77.4l-7.4,0l4.3-21.6l-9.1,17.4c-0.9,1.7-1.2,3.1-1,4.2l-6.9,0c1.4-1.1,2.4-2.5,3.4-4.2l10.4-20
			c0.9-1.7,1.2-3.1,1-4.2l14.2,0l-3.2,16.2L115.1,49z"/>
		<path class="st0" d="M130.6,67.3c0.5-1,0.8-1.3,1.8-1.3h1.3c0.8,0,1,0.3,0.9,1c-0.1,0.2-0.1,0.4-0.4,1l-2.6,5.5
			c-0.5,1-0.7,1.2-1.7,1.2h-1.6c-0.7,0-1-0.2-0.8-0.8c0-0.1,0-0.1,0.3-0.8L130.6,67.3z M131,63.3c-1.5,0-2.2,0.1-3,0.5
			c-0.9,0.5-1.8,1.5-2.4,2.7l-2.9,6.3c-0.2,0.5-0.4,0.8-0.5,1.2c-0.3,1.1-0.2,2.1,0.2,2.8c0.4,0.7,0.7,0.8,2.4,0.8h6.5
			c1.7,0,2.5-0.2,3.3-0.8c0.9-0.7,1.3-1.3,2-2.9l2.4-5.2c0.3-0.7,0.5-1.2,0.6-1.6c0.2-0.8,0.2-1.7,0.1-2.3c-0.3-1-0.9-1.4-2.3-1.4
			H131z"/>
		<path class="st0" d="M150.3,64.7c0.8-1.2,1.2-1.4,2.4-1.4h5.3c1,0,1.2,0.3,1.2,1.4c0.7-1.1,1.1-1.4,2-1.4h3.9c0.9,0,1.5,0.3,1.8,1
			c0.3,0.7,0.3,1.7,0.1,2.8c-0.1,0.5-0.2,0.7-0.7,1.7l-2.9,6.2c-0.2,0.4-0.5,1.1-0.6,1.5c-0.1,0.4-0.1,0.6-0.1,1h-6.2
			c0.8-1,1.2-1.6,2-3.3l2.9-6.4c0.2-0.4,0.3-0.7,0.4-0.9c0.2-0.6-0.1-0.9-0.8-0.9h-1.3c-0.8,0-1.1,0.3-1.7,1.4l-3.5,7.5
			c-0.2,0.4-0.5,1.1-0.6,1.5c-0.1,0.4-0.1,0.6-0.1,1h-6.2c0.8-1,1.2-1.6,2-3.3l2.9-6.2c0.4-0.9,0.4-0.9,0.4-1.1
			c0.1-0.5-0.1-0.9-0.6-0.9H151c-1,0-1.3,0.2-1.9,1.5l-3.4,7.4c-0.2,0.3-0.4,1.1-0.5,1.5c-0.1,0.4-0.1,0.6-0.1,1h-6.2
			c0.8-1,1.2-1.6,2-3.3l3.9-8.4c0.2-0.4,0.5-1.1,0.6-1.5c0.1-0.3,0.1-0.6,0.1-1h5.6L150.3,64.7z"/>
		<path class="st0" d="M175.6,69.1l0.8-1.6c0.5-1.2,0.8-1.4,1.6-1.4h1.7c0.5,0,0.7,0.2,0.6,0.7c0,0.1-0.1,0.4-0.3,0.6l-0.8,1.6
			H175.6z M181.7,74.5c-0.6,0.2-1,0.3-2,0.3h-5.2c-0.8,0-0.8,0-0.9-0.1c-0.2-0.1-0.3-0.4-0.2-0.8c0-0.1,0.2-0.5,0.3-0.8l0.6-1.3h8.9
			l1.6-3.6c0.2-0.5,0.4-1,0.5-1.4c0.3-1,0.2-1.9-0.1-2.6c-0.4-0.8-1-1-2.6-1h-6.8c-1.9,0-3.3,1-4.3,3.2l-2.9,6.3
			c-0.2,0.4-0.3,0.8-0.4,1.2c-0.2,0.9-0.2,1.9,0.2,2.6c0.4,0.7,1.1,1,2.2,1h9.4L181.7,74.5z"/>
		<path class="st0" d="M195.7,64.6c0.8-1.1,1.1-1.3,2.2-1.3h3.6c1,0,1.7,0.4,2,1.2c0.2,0.6,0.3,1.6,0,2.4c-0.1,0.6-0.5,1.5-0.9,2.3
			l-2.7,5.8c-0.2,0.3-0.4,1.1-0.5,1.5c-0.1,0.4-0.1,0.6-0.1,1H193c0.8-1,1.2-1.6,2-3.3l2.9-6.3c0.4-1,0.4-1,0.5-1.1
			c0.1-0.3,0-0.6-0.3-0.7c-0.1,0-0.1,0-0.5,0h-1.3c-0.9,0-1.2,0.2-1.7,1.4l-3.5,7.6c-0.2,0.3-0.4,1.1-0.5,1.5
			c-0.1,0.4-0.1,0.6-0.1,1h-6.2c0.8-1,1.2-1.6,2-3.3l3.9-8.4c0.2-0.4,0.5-1.1,0.6-1.5c0.1-0.3,0.1-0.6,0.1-1h5.6L195.7,64.6z"/>
		<path class="st0" d="M218.9,66.1h-4.3l-3.4,7.2c-0.1,0.1-0.1,0.3-0.2,0.4c-0.2,0.8,0.2,1.1,1.2,1.1h1.4c0.7,0,1.2-0.1,2-0.4
			l-1.5,3.2h-5.4c-0.4,0-1.2-0.1-1.7-0.1c-1.3-0.2-1.9-1.7-1.4-3.4c0.1-0.3,0.3-0.8,0.4-1.2l3.2-6.8h-2.2l1.3-2.8h2.2l1.3-2.7
			l5.5-0.4l-1.5,3.1h4.3L218.9,66.1z"/>
		<path class="st0" d="M232.6,75c-0.2,0.4-0.5,1.1-0.6,1.5c-0.1,0.4-0.1,0.6-0.1,1H227l0.2-1.1c-0.6,0.8-1,1.1-1.9,1.1h-4
			c-1,0-1.6-0.2-2-0.7c-0.5-0.7-0.6-1.7-0.4-2.7c0.1-0.3,0.4-1,0.5-1.4l3.2-6.9c0.2-0.3,0.4-1.1,0.5-1.5c0.1-0.3,0.1-0.6,0.1-1h5.8
			l-4.7,10.2c-0.2,0.3-0.2,0.4-0.2,0.5c-0.1,0.6,0,0.8,0.6,0.8h1.5c0.7,0,1.1-0.3,1.5-1.2l3.6-7.8c0.1-0.3,0.4-1.1,0.5-1.5
			c0.1-0.4,0.1-0.6,0.1-1h5.8L232.6,75z"/>
		<path class="st0" d="M247.1,64.7c0.8-1.2,1.2-1.4,2.4-1.4h5.3c1,0,1.2,0.3,1.2,1.4c0.7-1.1,1.1-1.4,2-1.4h3.9c0.9,0,1.5,0.3,1.8,1
			c0.3,0.7,0.3,1.7,0.1,2.8c-0.1,0.5-0.2,0.7-0.7,1.7l-2.9,6.2c-0.2,0.4-0.5,1.1-0.6,1.5c-0.1,0.4-0.1,0.6-0.1,1h-6.2
			c0.8-1,1.2-1.6,2-3.3l2.9-6.4c0.2-0.4,0.3-0.7,0.4-0.9c0.2-0.6-0.1-0.9-0.8-0.9h-1.3c-0.8,0-1.1,0.3-1.7,1.4l-3.5,7.5
			c-0.2,0.4-0.5,1.1-0.6,1.5c-0.1,0.4-0.1,0.6-0.1,1h-6.2c0.8-1,1.2-1.6,2-3.3l2.9-6.2c0.4-0.9,0.4-0.9,0.4-1.1
			c0.1-0.5-0.1-0.9-0.6-0.9h-1.3c-1,0-1.3,0.2-1.9,1.5l-3.4,7.4c-0.2,0.3-0.4,1.1-0.5,1.5c-0.1,0.4-0.1,0.6-0.1,1h-6.2
			c0.8-1,1.2-1.6,2-3.3l3.9-8.4c0.2-0.4,0.5-1.1,0.6-1.5c0.1-0.3,0.1-0.6,0.1-1h5.6L247.1,64.7z"/>
		<path class="st0" d="M315.8,86.2h-13.6v-3.9h13.6v-1.4h-13.1v-3.9h13.1v-1.6H303l-0.7-3.8h26.7c0.5,0,0.9-0.1,1.1-0.4
			c0.2-0.2,0.3-0.5,0.3-0.9h7.8v1.5c0,0.9-0.3,1.7-1,2.4c-0.8,0.8-1.8,1.2-3,1.2h-10.2v1.6h14v3.9h-14v1.4h14.8v3.9h-14.8v2
			c0,0.9-0.4,1.7-1.1,2.5c-0.8,0.8-1.9,1.3-3.1,1.3h-11.8l-0.7-3.8h6.8c0.5,0,0.9-0.1,1.1-0.4c0.2-0.2,0.3-0.5,0.3-0.9V86.2z
			 M291.4,86.1c0.8,0,1.2-0.4,1.2-1.1V50.3h4.1h4.1h12v-1.4h8.2v1.4h18v5.2h-38.1v32.1c0,2.9-1.6,4.3-4.8,4.3h-4.3l-1.1-5.9H291.4z
			 M306.5,61.4h-4v-3.8h4v-1.1h7.8v1.1h4.1v3.8h-4.1v8.5h-7.8V61.4z M302.8,62.6h2.7v4.8c0,0.6-0.3,1.1-0.7,1.6
			c-0.5,0.5-1.2,0.8-2,0.8h-0.6l-0.8-4.5h0.3c0.4,0,0.7-0.1,0.8-0.2c0.2-0.2,0.2-0.4,0.2-0.7V62.6z M315.5,62.6h2.7v7.2h-2.7V62.6z
			 M325.2,61.4h-4.4v-3.8h4.4v-1.1h7.8v1.1h5.1v3.8H333v8.5h-7.8V61.4z M321.5,62.6h2.7v5c0,0.6-0.3,1.1-0.7,1.6
			c-0.5,0.6-1.2,0.8-2,0.8h-1.4l-0.8-4.5h1.1c0.4,0,0.7-0.1,0.8-0.3c0.2-0.2,0.2-0.4,0.2-0.6V62.6z M334.2,62.6h2.7V64
			c0,0.8,0.4,1.1,1.2,1.1h0.9v4.5h0c-3.2,0-4.8-1.5-4.8-4.3V62.6z"/>
		<path class="st0" d="M367.8,62.1v-1.9V49.8h4.1h4.1h28h4.1h4.1v9.9c0,2.9-1.6,4.3-4.8,4.3h-39.6V62.1z M404,58.5h-28v1.7h26.8
			c0.8,0,1.2-0.4,1.2-1.1V58.5z M376,55.5h28v-1.9h-28V55.5z M367.3,73.7v-2v-6.4h4h4h29.2h4h4v6c0,2.9-1.6,4.4-4.8,4.4h-40.3V73.7z
			 M392.1,71.7v-2.3h-4.4v2.3H392.1z M400.3,69.4v2.3h3c0.8,0,1.2-0.4,1.2-1.1v-1.2H400.3z M379.6,71.7v-2.3h-4.3v2.3H379.6z
			 M388.8,90.2c-2.8,1.1-5.4,1.7-7.8,1.7h-13.8l-1.1-4.5h10.9c1.1,0,2.1-0.1,2.8-0.4l0.8-0.3l-8-3.4h15.8l0.8,0.3l5.2-1.9h-27v-4.5
			H413v4.5l-14.6,5.1c1,0.4,2.9,0.5,5.7,0.5h9.8V92h-20c-0.9,0-1.5-0.1-1.9-0.3L388.8,90.2z"/>
		<path class="st0" d="M448.8,83.2h-6.6v-3v-2.9V59.8h4.5v17.5h2.1V57.9h-7.5v-5.9h7.5v-3h8.2v3h7v5.9h-7v19.4h0.6
			c1.1,0,1.7-0.5,1.7-1.5V59.8h4.4v19.7c0,2.5-1.4,3.7-4.1,3.7H457V85c0,0.7,0.4,1.1,1.2,1.1h4.8V92h-9.4c-3.2,0-4.8-1.4-4.8-4.3
			V83.2z M477.9,84.2H476l-1.6,4.7c-0.8,2.1-2.4,3.1-5,3.1h-3.8l-1.2-5.6h1.7c0.9,0,1.5-0.4,1.8-1.2l0.3-1H466v-2.7v-2.7V58.2h4.1
			h1.6l1.2-2.6h-7.3v-5.9h23.3v5.9h-7.4l-1.2,2.6h3.7h4.1v21.7c0,2.1-0.8,3.5-2.5,4l0.3,1.5c0.2,0.7,0.7,1,1.6,1h1.3V92h-5.3
			c-2.5,0-4.1-1.3-4.8-3.9L477.9,84.2z M479.9,76.6h-5.7v2.2h4.5c0.8,0,1.2-0.4,1.2-1.1V76.6z M474.2,72.2h5.7v-2.2h-5.7V72.2z
			 M474.2,65.7h5.7v-2.2h-5.7V65.7z"/>
		<path class="st0" d="M49.3,67.6c0-17.6,24-32.8,64.9-39.6C66,30,28.3,46.8,28.3,67.3c0,19.7,34.9,36,80.5,38.9
			C70.8,99,49.3,84.4,49.3,67.6z"/>
	</g>
</g>
</svg>
