<svg xmlns="http://www.w3.org/2000/svg" width="44" height="42" viewBox="0 0 44 42">
    <path fill="#204BA0" fill-rule="evenodd" d="M12.5 29.182L28.7 11l1.8 1.818L14.3 31l-1.8-1.818zM15 21a5 5 0 1 1 0-10 5 5 0 0 1 0 10zm13 10a5 5 0 1 1 0-10 5 5 0 0 1 0 10zM15 19a3 3 0 1 0 0-6 3 3 0 0 0 0 6zm13 10a3 3 0 1 0 0-6 3 3 0 0 0 0 6zm4.055 4.181l6.915-2.076-1.603-6.846 3.912-5.885-5.752-4.234-.912-6.99-7.258.343L22 2.687l-5.357 4.806-7.258-.343-.912 6.99-5.752 4.234 3.912 5.885-1.603 6.846 6.915 2.076 3.334 6.285L22 36.729l6.72 2.737 3.335-6.285zM22 38.889L14.36 42l-3.79-7.144-7.916-2.377 1.834-7.833L0 17.893l6.6-4.858 1.04-7.97 8.278.392L22 0l6.082 5.457 8.277-.391 1.04 7.969L44 17.893l-4.488 6.753 1.834 7.833-7.916 2.377L29.64 42 22 38.889z"/>
</svg>
